<?xml version="1.0" encoding="utf-8"?>
<!-- Generator: Adobe Illustrator 25.4.0, SVG Export Plug-In . SVG Version: 6.00 Build 0)  -->
<svg version="1.1" xmlns="http://www.w3.org/2000/svg" xmlns:xlink="http://www.w3.org/1999/xlink" x="0px" y="0px"
	 viewBox="0 0 595.28 841.89" style="enable-background:new 0 0 595.28 841.89;" xml:space="preserve">
<style type="text/css">
	.st0{display:none;}
	.st1{display:inline;fill:none;stroke:#000000;stroke-width:0.25;stroke-miterlimit:10;}
	.st2{fill:#AD8034;stroke:#000000;stroke-width:0.01;stroke-miterlimit:10;}
	.st3{fill:#DEA239;stroke:#000000;stroke-width:0.01;stroke-miterlimit:10;}
	.st4{fill:#805E2A;stroke:#000000;stroke-width:0.01;stroke-miterlimit:10;}
	.st5{fill:#AD8035;stroke:#000000;stroke-width:0.01;stroke-miterlimit:10;}
</style>
<g id="Layer_1" class="st0">
	<polyline class="st1" points="297.64,389.76 269.29,396.85 269.29,419.88 297.64,412.8 	"/>
	<polygon class="st1" points="269.3,378.21 269.29,389.76 276.39,388.03 276.39,376.44 	"/>
	<polygon class="st1" points="283.46,386.22 292.29,384.02 292.32,372.47 283.46,374.68 	"/>
	<polygon class="st1" points="292.32,372.47 294.98,374.62 294.98,386.2 286.18,388.43 283.46,386.22 292.29,384.02 	"/>
	<polygon class="st1" points="276.39,376.44 279.03,378.58 279.03,390.16 271.93,391.89 269.29,389.76 276.39,388.03 	"/>
	<line class="st1" x1="292.29" y1="384.02" x2="294.98" y2="386.2"/>
	<line class="st1" x1="297.64" y1="412.8" x2="297.64" y2="389.76"/>
	<polyline class="st1" points="269.29,419.88 272.61,422.56 297.64,417.15 	"/>
	<polyline class="st1" points="297.64,389.76 325.98,396.85 325.98,419.88 297.64,412.8 	"/>
	<polygon class="st1" points="325.97,378.21 325.98,389.76 318.89,388.03 318.89,376.44 	"/>
	<polygon class="st1" points="311.81,386.22 302.99,384.02 302.95,372.47 311.81,374.68 	"/>
	<polygon class="st1" points="302.95,372.47 300.3,374.62 300.3,386.2 309.1,388.43 311.81,386.22 302.99,384.02 	"/>
	<polygon class="st1" points="318.89,376.44 316.24,378.58 316.24,390.16 323.35,391.89 325.98,389.76 318.89,388.03 	"/>
	<line class="st1" x1="318.9" y1="387.99" x2="316.24" y2="390.16"/>
	<line class="st1" x1="302.99" y1="384.02" x2="300.3" y2="386.2"/>
	<polyline class="st1" points="325.98,419.88 322.66,422.56 297.64,417.15 	"/>
	<polyline class="st1" points="269.29,389.76 269.3,378.21 276.39,376.44 276.38,387.99 279.03,390.16 	"/>
</g>
<g id="Layer_2">
	<polygon class="st2" points="269.3,376.44 276.39,374.71 276.38,387.99 269.29,389.76 	"/>
	<polygon class="st3" points="276.39,374.71 279.03,376.87 279.03,390.16 276.38,387.99 	"/>
	<polygon class="st4" points="269.29,389.76 276.38,387.99 279.03,390.16 271.93,391.89 	"/>
	<polygon class="st2" points="283.46,372.94 292.33,370.72 292.29,384.02 283.46,386.22 	"/>
	<polygon class="st3" points="294.98,372.89 292.33,370.72 292.29,384.02 294.98,386.2 	"/>
	<polygon class="st4" points="286.18,388.43 283.46,386.22 292.29,384.02 294.98,386.2 	"/>
	<polygon class="st2" points="300.3,372.86 302.95,370.72 302.99,384.02 300.3,386.2 	"/>
	<polygon class="st3" points="311.81,372.94 302.95,370.72 302.99,384.02 311.81,386.22 	"/>
	<polygon class="st4" points="309.1,388.43 311.81,386.22 302.99,384.02 300.3,386.2 	"/>
	<polygon class="st2" points="316.24,390.16 318.9,387.99 318.89,374.71 316.24,376.84 	"/>
	<polygon class="st4" points="325.98,389.76 323.35,391.89 316.24,390.16 318.9,387.99 	"/>
	<polygon class="st3" points="325.97,376.48 318.89,374.71 318.9,387.99 325.98,389.76 	"/>
	<polygon class="st5" points="297.64,389.76 269.29,396.85 269.29,419.88 297.64,412.8 	"/>
	<polygon class="st4" points="272.61,422.56 269.29,419.88 297.64,412.8 325.98,419.88 322.66,422.56 297.64,417.15 	"/>
	<polygon class="st3" points="297.64,389.76 325.98,396.85 325.98,419.88 297.64,412.8 	"/>
</g>
<g id="Layer_3">
	<polygon points="301.07,395.05 303.01,410.61 304.71,411.04 306.48,406.07 307.35,411.7 309.11,412.14 311.81,397.74 
		310.12,397.31 308.34,407.45 307.58,402.66 305.85,402.22 304.26,406.43 302.91,395.51 	"/>
	<polygon points="322.44,400.39 314.48,398.4 314.48,406.12 320.67,407.67 320.67,412.99 314.48,411.44 314.48,413.45 
		322.44,415.44 322.44,406.4 316.31,404.82 316.31,400.83 322.44,402.36 	"/>
	<path d="M273.73,404.09l0.06,11.11l1.6-0.4l0.11-5.66l5.31-1.33v-5.49L273.73,404.09z M279.03,406.39l-3.54,0.89v-1.99l3.54-0.93
		V406.39z"/>
	<path d="M293.21,395.16l-7.97,1.99v15.18l1.77-0.42v-7.94l4.43-1.11v7.92l1.77-0.44V395.16z M287.01,402.28v-3.82l4.43-1.11v3.82
		L287.01,402.28z"/>
</g>
</svg>
